<?xml version="1.0" encoding="UTF-8"?>
<svg xmlns="http://www.w3.org/2000/svg" xmlns:xlink="http://www.w3.org/1999/xlink" width="1024px" height="1024px" viewBox="0 0 1024 1024" version="1.1">
<g id="surface1">
<path style=" stroke:none;fill-rule:nonzero;fill:rgb(59.607843%,88.627451%,83.137255%);fill-opacity:1;" d="M 512.355469 1.613281 C 793.9375 1.613281 1023.03125 230.707031 1023.03125 512.289062 C 1023.007812 538.8125 1020.957031 565.289062 1016.894531 591.496094 L 904.253906 591.496094 L 904.253906 591.949219 L 896.984375 591.691406 C 884.710938 591.109375 873.144531 590.011719 862.257812 588.460938 L 855.800781 587.523438 C 850.210938 586.652344 844.785156 585.652344 839.648438 584.550781 C 837.191406 584.035156 834.800781 583.453125 832.410156 582.90625 L 825.113281 581.03125 C 823.5625 580.609375 821.882812 580.191406 820.492188 579.707031 C 819.101562 579.222656 817.875 578.929688 816.582031 578.511719 C 815.839844 578.316406 815.164062 578.089844 814.417969 577.832031 L 812.351562 577.15625 C 808.925781 576.023438 805.566406 574.828125 802.339844 573.570312 C 800.980469 573.085938 799.6875 572.566406 798.398438 572.019531 C 795.617188 570.921875 792.96875 569.726562 790.320312 568.496094 C 788.738281 567.785156 787.089844 567.042969 785.734375 566.332031 C 779.855469 563.398438 774.128906 560.164062 768.582031 556.640625 L 765.351562 554.609375 C 763.574219 553.445312 761.894531 552.3125 760.183594 551.117188 C 758.46875 549.921875 756.953125 548.761719 755.242188 547.5 C 753.527344 546.242188 752.011719 545.078125 750.460938 543.753906 C 749.222656 542.824219 748.039062 541.832031 746.90625 540.78125 C 746.523438 540.511719 746.15625 540.21875 745.808594 539.910156 C 744.03125 538.328125 742.222656 536.679688 740.445312 535 C 739.621094 534.300781 738.832031 533.554688 738.085938 532.769531 L 736.214844 530.929688 C 735.78125 530.542969 735.371094 530.136719 734.988281 529.703125 C 734.761719 529.476562 734.566406 529.21875 734.339844 529.023438 C 733.371094 528.117188 732.46875 527.183594 731.691406 526.308594 C 730.429688 525.070312 729.230469 523.765625 728.105469 522.402344 L 727.6875 521.949219 C 727.222656 521.496094 726.789062 521.011719 726.394531 520.496094 C 726.234375 520.269531 726.007812 520.109375 725.878906 519.914062 C 724.617188 518.558594 723.421875 517.105469 722.226562 515.648438 C 721.472656 514.828125 720.761719 513.964844 720.09375 513.066406 L 719.578125 512.421875 C 718.898438 511.613281 718.222656 510.773438 717.609375 509.933594 L 715.894531 507.703125 L 714.796875 506.25 L 714.183594 505.476562 C 713.828125 504.925781 713.441406 504.410156 713.085938 503.890625 C 711.792969 502.179688 710.535156 500.339844 709.273438 498.59375 L 708.984375 498.175781 C 708.757812 497.851562 708.5625 497.527344 708.335938 497.238281 C 706.882812 495.105469 705.429688 492.941406 704.007812 490.777344 C 703.824219 490.453125 703.617188 490.140625 703.394531 489.839844 L 702.878906 489 L 699.164062 483.121094 C 696.425781 478.578125 693.726562 473.957031 691.054688 469.261719 C 689.535156 466.550781 688.019531 463.835938 686.566406 461.121094 C 679.101562 447.425781 672.09375 433.179688 664.890625 418.613281 C 616.433594 320.929688 561.777344 210.164062 353.457031 210.164062 L 100.65625 210.164062 C 197.074219 79.316406 349.824219 1.941406 512.355469 1.613281 Z M 512.355469 1.613281 "/>
<path style=" stroke:none;fill-rule:nonzero;fill:rgb(64.705882%,35.686275%,11.764706%);fill-opacity:1;" d="M 923.925781 814.675781 C 827.496094 945.421875 674.8125 1022.730469 512.355469 1023.0625 C 230.769531 1023.0625 1.613281 793.972656 1.613281 512.386719 C 1.597656 485.050781 3.757812 457.753906 8.074219 430.757812 L 46.097656 430.757812 C 215.589844 430.757812 255.386719 511.515625 301.289062 605.195312 C 349.742188 703.296875 404.398438 814.582031 612.785156 814.582031 Z M 923.925781 814.675781 "/>
<path style=" stroke:none;fill-rule:nonzero;fill:rgb(89.803922%,56.862745%,18.039216%);fill-opacity:1;" d="M 357.625 577.511719 C 309.332031 479.375 254.578125 368.125 46.160156 368.125 L 22.257812 368.125 C 32 335.023438 45.09375 303.007812 61.34375 272.570312 L 353.199219 272.570312 C 522.722656 272.570312 562.523438 353.039062 608.585938 446.230469 C 657.039062 543.980469 711.632812 654.714844 919.984375 654.714844 L 1002.710938 654.714844 C 992.90625 688.425781 979.636719 721.03125 963.109375 752.011719 L 613.042969 752.011719 C 443.519531 752.011719 403.722656 671.15625 357.625 577.511719 Z M 357.625 577.511719 "/>
</g>
</svg>
