<svg xmlns="http://www.w3.org/2000/svg" width="1024" height="1024" viewBox="0 0 1024 1024"><path style="stroke:none;fill-rule:nonzero;fill:#98e2d4;fill-opacity:1" d="M512.355 1.613c281.582 0 510.676 229.094 510.676 510.676-.023 26.524-2.074 53-6.136 79.207H904.254v.453l-7.27-.258c-12.273-.582-23.84-1.68-34.726-3.23l-6.457-.938a291.239 291.239 0 0 1-16.153-2.972c-2.457-.516-4.847-1.098-7.238-1.645l-7.297-1.875c-1.55-.422-3.23-.84-4.62-1.324-1.391-.484-2.618-.777-3.911-1.195a29.348 29.348 0 0 1-2.164-.68l-2.066-.676a203.944 203.944 0 0 1-10.012-3.586 71.281 71.281 0 0 1-3.942-1.55c-2.78-1.098-5.43-2.293-8.078-3.524-1.582-.71-3.23-1.453-4.586-2.164a191.263 191.263 0 0 1-17.152-9.691l-3.23-2.032a205.61 205.61 0 0 1-5.168-3.492c-1.715-1.195-3.23-2.355-4.942-3.617-1.715-1.258-3.23-2.422-4.781-3.746a44.61 44.61 0 0 1-3.555-2.973c-.383-.27-.75-.562-1.097-.87a244.69 244.69 0 0 1-5.364-4.911 30.283 30.283 0 0 1-2.36-2.23l-1.87-1.84a14.538 14.538 0 0 1-1.227-1.227c-.226-.226-.422-.484-.648-.68a41.608 41.608 0 0 1-2.649-2.714 50.63 50.63 0 0 1-3.586-3.907l-.418-.453a13.423 13.423 0 0 1-1.292-1.453c-.16-.226-.387-.387-.516-.582-1.262-1.355-2.457-2.809-3.652-4.266a32.248 32.248 0 0 1-2.133-2.582l-.516-.644a46.97 46.97 0 0 1-1.969-2.488l-1.714-2.23-1.098-1.454-.613-.773c-.356-.551-.743-1.067-1.098-1.586-1.293-1.711-2.55-3.551-3.813-5.297l-.289-.418c-.226-.324-.422-.649-.648-.938a464.976 464.976 0 0 1-4.328-6.46 9.198 9.198 0 0 0-.613-.938l-.516-.84-3.715-5.879a640.208 640.208 0 0 1-8.11-13.86 479.771 479.771 0 0 1-4.488-8.14c-7.464-13.695-14.472-27.941-21.675-42.508-48.457-97.683-103.114-208.449-311.434-208.449h-252.8C197.073 79.316 349.823 1.941 512.354 1.614Zm0 0"/><path style="stroke:none;fill-rule:nonzero;fill:#a55b1e;fill-opacity:1" d="M923.926 814.676c-96.43 130.746-249.114 208.054-411.57 208.386-281.586 0-510.743-229.09-510.743-510.675a515.16 515.16 0 0 1 6.461-81.63h38.024c169.492 0 209.289 80.759 255.191 174.438 48.453 98.102 103.11 209.387 311.496 209.387Zm0 0"/><path style="stroke:none;fill-rule:nonzero;fill:#e5912e;fill-opacity:1" d="M357.625 577.512C309.332 479.375 254.578 368.125 46.16 368.125H22.258a506.553 506.553 0 0 1 39.086-95.555h291.855c169.524 0 209.324 80.47 255.387 173.66 48.453 97.75 103.047 208.485 311.398 208.485h82.727a508.296 508.296 0 0 1-39.602 97.297H613.043c-169.523 0-209.32-80.856-255.418-174.5Zm0 0"/></svg>