<?xml version="1.0" encoding="UTF-8" standalone="no" ?>
<!DOCTYPE svg PUBLIC "-//W3C//DTD SVG 1.1//EN" "http://www.w3.org/Graphics/SVG/1.1/DTD/svg11.dtd">
<svg xmlns="http://www.w3.org/2000/svg" xmlns:xlink="http://www.w3.org/1999/xlink" version="1.1" width="1024" height="1024" viewBox="0 0 1024 1024" xml:space="preserve">
<desc>Created with Fabric.js 3.6.6</desc>
<defs>
</defs>
<g transform="matrix(1 0 0 1 512 512)"  >
<g style=""   >
		<g transform="matrix(1 0 0 1 40.5 -174.87)" id="surface1"  >
<path style="stroke: none; stroke-width: 1; stroke-dasharray: none; stroke-linecap: butt; stroke-dashoffset: 0; stroke-linejoin: miter; stroke-miterlimit: 4; fill: rgb(150,224,211); fill-rule: nonzero; opacity: 1;"  transform=" translate(-456.5, -241.13)" d="M 416.289062 1.3125 C 645.074219 1.3125 831.210938 187.449219 831.210938 416.234375 C 831.195312 437.785156 829.527344 459.296875 826.226562 480.589844 L 734.707031 480.589844 L 734.707031 480.957031 L 728.800781 480.75 C 718.828125 480.277344 709.429688 479.382812 700.585938 478.125 L 695.339844 477.363281 C 690.796875 476.65625 686.386719 475.84375 682.214844 474.949219 C 680.21875 474.527344 678.277344 474.054688 676.332031 473.609375 L 670.40625 472.085938 C 669.144531 471.746094 667.78125 471.40625 666.648438 471.011719 C 665.519531 470.617188 664.523438 470.378906 663.472656 470.039062 C 662.871094 469.882812 662.320312 469.699219 661.714844 469.488281 L 660.035156 468.9375 C 657.253906 468.019531 654.523438 467.046875 651.902344 466.027344 C 650.796875 465.632812 649.746094 465.210938 648.699219 464.765625 C 646.4375 463.875 644.289062 462.902344 642.136719 461.902344 C 640.851562 461.324219 639.511719 460.722656 638.410156 460.144531 C 633.632812 457.761719 628.980469 455.132812 624.472656 452.269531 L 621.847656 450.621094 C 620.402344 449.675781 619.039062 448.753906 617.648438 447.78125 C 616.257812 446.8125 615.023438 445.867188 613.632812 444.84375 C 612.242188 443.820312 611.007812 442.875 609.75 441.800781 C 608.742188 441.042969 607.78125 440.238281 606.859375 439.382812 C 606.550781 439.164062 606.25 438.929688 605.96875 438.675781 C 604.523438 437.390625 603.054688 436.050781 601.613281 434.6875 C 600.941406 434.121094 600.300781 433.511719 599.695312 432.875 L 598.175781 431.378906 C 597.820312 431.066406 597.488281 430.734375 597.179688 430.382812 C 596.992188 430.199219 596.835938 429.992188 596.652344 429.832031 C 595.863281 429.09375 595.132812 428.335938 594.5 427.625 C 593.472656 426.621094 592.5 425.558594 591.585938 424.453125 L 591.246094 424.082031 C 590.867188 423.714844 590.515625 423.320312 590.195312 422.902344 C 590.066406 422.71875 589.882812 422.589844 589.777344 422.429688 C 588.75 421.328125 587.78125 420.148438 586.808594 418.964844 C 586.195312 418.296875 585.617188 417.597656 585.078125 416.867188 L 584.65625 416.34375 C 584.105469 415.6875 583.554688 415.003906 583.058594 414.320312 L 581.664062 412.507812 L 580.773438 411.328125 L 580.273438 410.699219 C 579.984375 410.253906 579.671875 409.832031 579.382812 409.410156 C 578.332031 408.019531 577.308594 406.527344 576.285156 405.105469 L 576.050781 404.769531 C 575.867188 404.503906 575.707031 404.242188 575.523438 404.007812 C 574.34375 402.273438 573.160156 400.515625 572.007812 398.757812 C 571.855469 398.492188 571.6875 398.238281 571.507812 397.996094 L 571.089844 397.3125 L 568.070312 392.535156 C 565.847656 388.84375 563.652344 385.089844 561.480469 381.273438 C 560.246094 379.074219 559.015625 376.867188 557.835938 374.660156 C 551.769531 363.535156 546.078125 351.957031 540.222656 340.125 C 500.851562 260.753906 456.445312 170.757812 287.183594 170.757812 L 81.78125 170.757812 C 160.121094 64.445312 284.230469 1.578125 416.289062 1.3125 Z M 416.289062 1.3125" stroke-linecap="round" />
</g>
		<g transform="matrix(1 0 0 1 -40 174.62)" id="surface1"  >
<path style="stroke: none; stroke-width: 1; stroke-dasharray: none; stroke-linecap: butt; stroke-dashoffset: 0; stroke-linejoin: miter; stroke-miterlimit: 4; fill: rgb(163,89,28); fill-rule: nonzero; opacity: 1;"  transform=" translate(-376, -590.62)" d="M 750.691406 661.925781 C 672.339844 768.15625 548.285156 830.96875 416.289062 831.238281 C 187.5 831.238281 1.3125 645.101562 1.3125 416.3125 C 1.296875 394.105469 3.054688 371.925781 6.558594 349.992188 L 37.453125 349.992188 C 175.167969 349.992188 207.5 415.605469 244.796875 491.722656 C 284.164062 571.429688 328.574219 661.847656 497.886719 661.847656 Z M 750.691406 661.925781" stroke-linecap="round" />
</g>
		<g transform="matrix(1 0 0 1 0.39 0.24)" id="surface1"  >
<path style="stroke: none; stroke-width: 1; stroke-dasharray: none; stroke-linecap: butt; stroke-dashoffset: 0; stroke-linejoin: miter; stroke-miterlimit: 4; fill: rgb(226,142,45); fill-rule: nonzero; opacity: 1;"  transform=" translate(-416.39, -416.24)" d="M 290.570312 469.226562 C 251.332031 389.492188 206.84375 299.101562 37.503906 299.101562 L 18.085938 299.101562 C 26 272.207031 36.640625 246.195312 49.84375 221.464844 L 286.972656 221.464844 C 424.710938 221.464844 457.050781 286.84375 494.476562 362.5625 C 533.84375 441.984375 578.203125 531.957031 747.488281 531.957031 L 814.703125 531.957031 C 806.734375 559.347656 795.953125 585.835938 782.527344 611.007812 L 498.097656 611.007812 C 360.359375 611.007812 328.023438 545.3125 290.570312 469.226562 Z M 290.570312 469.226562" stroke-linecap="round" />
</g>
</g>
</g>
</svg>